:SAMPLES-PER-SECOND 30
:FULLY-SPECIFIED
:DEGREES
595
root  10.2377 36.2465 2.86044 93.9716 60.9932 23.7856
RightUpLeg  -78.8931 -8.61907 -1.60675
RightLeg  29.735 -2.18145 -1.02132
RightFoot  -23.0739 -0.186749 -0.292519
RightToes  3.49245e-010 0 -3.6325e-017
Spine  -92.874 -10.3178 -17.4681
Spine1  35.7633 -3.68285 10.2387
HEad  -13.4864 8.17815 -7.87001
LeftShoulder1  -0.26922 4.28002 -28.4973
LeftArm  -15.8313 12.6469 -32.6779
LeftForeArm  24.5896 -48.6824 -10.9151
LeftHand  -0.0425908 4.65606 3.15159
RightShoulder  -0.460849 -4.80061 28.6037
RightArm  10.1317 -0.885201 40.9119
RightForeArm  10.1167 1.28083 5.91251
RightHand  -0.183634 -0.306165 -4.1264
LeftUpLeg  -90.9928 -5.44201 -14.4412
LeftLeg  7.45759 3.33332 0.600852
LeftFoot  7.03254 0.600465 -3.97346
LeftToes  -5.36635e-011 -6.70219e-011 5.24975e-011
596
root  10.3923 36.0651 3.23939 99.2578 59.3935 25.7478
RightUpLeg  -82.4238 -9.82425 -1.78236
RightLeg  30.0238 -1.66838 -0.624247
RightFoot  -23.4135 -0.262006 -0.982072
RightToes  3.49245e-010 0 -3.6325e-017
Spine  -97.5542 -14.0008 -19.2579
Spine1  37.4924 -5.00641 10.8893
HEad  -14.6114 8.39777 -8.77745
LeftShoulder1  -0.345543 4.48375 -29.107
LeftArm  -15.0075 13.4201 -32.5496
LeftForeArm  24.9638 -50.2822 -11.5853
LeftHand  -0.0515069 4.44593 3.82229
RightShoulder  -0.539952 -5.00509 29.1454
RightArm  11.2088 -2.98821 40.8333
RightForeArm  11.9218 2.62508 6.20847
RightHand  -0.11382 -0.805963 -2.80107
LeftUpLeg  -93.9328 -8.84756 -17.7205
LeftLeg  8.90358 1.98215 0.726684
LeftFoot  6.6634 0.456648 -3.13702
LeftToes  -5.36635e-011 -6.70219e-011 5.24975e-011
597
root  10.4151 36.121 3.4781 96.7423 58.9019 23.9225
RightUpLeg  -81.128 -9.02744 -1.59889
RightLeg  29.2994 -0.962062 -0.218848
RightFoot  -23.2963 -0.289542 -1.25801
RightToes  3.49245e-010 0 -3.6325e-017
Spine  -97.034 -12.0508 -18.1882
Spine1  37.3767 -3.32916 9.81477
HEad  -15.1186 8.78068 -9.36579
LeftShoulder1  -0.409197 4.64976 -29.5502
LeftArm  -14.0406 14.6496 -33.0416
LeftForeArm  24.8752 -50.5934 -11.7363
LeftHand  -0.0567062 4.34541 4.08116
RightShoulder  -0.568157 -5.06681 29.5504
RightArm  11.7805 -4.85384 41.1408
RightForeArm  12.8387 3.74621 6.36279
RightHand  -0.157424 -0.0936871 -3.49884
LeftUpLeg  -93.3446 -9.39887 -19.1548
LeftLeg  9.54494 1.63059 0.654963
LeftFoot  5.87044 0.450152 -3.22098
LeftToes  -5.36635e-011 -6.70219e-011 5.24975e-011
598
root  10.4956 36.1082 3.78049 95.0346 58.7588 23.1127
RightUpLeg  -79.7996 -8.56793 -1.17053
RightLeg  29.2557 -0.407978 0.107372
RightFoot  -23.8516 -0.318574 -1.43331
RightToes  3.49245e-010 0 -3.6325e-017
Spine  -95.5772 -11.5916 -18.1612
Spine1  36.2944 -3.0572 9.75563
HEad  -15.4587 9.2902 -9.60801
LeftShoulder1  -0.464846 4.79372 -29.8905
LeftArm  -12.6567 16.0263 -33.8419
LeftForeArm  24.0978 -49.4547 -11.2897
LeftHand  -0.0715361 3.88982 4.15984
RightShoulder  -0.643879 -5.25628 29.9746
RightArm  11.7929 -6.37946 41.6221
RightForeArm  13.5816 4.9492 6.3031
RightHand  -0.144911 0.735692 -2.81722
LeftUpLeg  -91.8319 -9.98533 -20.3607
LeftLeg  8.11613 1.40054 0.252595
LeftFoot  4.73414 0.546274 -4.06742
LeftToes  -5.36635e-011 -6.70219e-011 5.24975e-011
599
root  10.6534 36.0636 4.11721 93.5624 58.3551 22.2112
RightUpLeg  -78.7213 -8.16231 -0.906737
RightLeg  29.3169 0.180972 0.48614
RightFoot  -24.403 -0.370861 -1.79219
RightToes  3.49245e-010 0 -3.6325e-017
Spine  -94.8987 -11.5455 -18.4278
Spine1  35.884 -2.95571 9.77704
HEad  -15.9783 9.69826 -9.50244
LeftShoulder1  -0.511901 4.92146 -29.9441
LeftArm  -10.6723 17.0744 -34.9339
LeftForeArm  22.7242 -46.7855 -10.2937
LeftHand  -0.0571681 4.26725 3.87591
RightShoulder  -0.770193 -5.56349 30.7347
RightArm  11.7081 -6.86633 42.0406
RightForeArm  13.6915 5.89533 6.24638
RightHand  -0.114363 0.0631522 -2.46025
LeftUpLeg  -90.5733 -10.2391 -18.9905
LeftLeg  5.54412 5.98964 -0.821912
LeftFoot  3.96341 0.439946 -3.45012
LeftToes  -5.36635e-011 -6.70219e-011 5.24975e-011
600
root  10.8932 35.9873 4.4846 92.6299 57.8996 21.6817
RightUpLeg  -77.7539 -8.08834 -0.493479
RightLeg  29.4946 0.902545 0.926988
RightFoot  -25.1466 -0.440844 -2.23711
RightToes  3.49245e-010 0 -3.6325e-017
Spine  -94.2961 -12.3942 -19.0838
Spine1  35.3834 -3.53823 10.4416
HEad  -16.1589 10.3241 -9.51329
LeftShoulder1  -0.59965 5.14214 -30.4462
LeftArm  -7.62269 17.4854 -35.6299
LeftForeArm  21.0245 -42.3676 -8.81988
LeftHand  -0.0582131 4.08894 3.63966
RightShoulder  -0.777543 -5.57866 30.8071
RightArm  11.6018 -7.25322 42.8097
RightForeArm  12.7201 6.71473 6.23811
RightHand  -0.111055 0.474977 -2.26466
LeftUpLeg  -89.7665 -10.5461 -16.4578
LeftLeg  3.31911 13.47 -2.30991
LeftFoot  3.41083 0.187956 -1.60761
LeftToes  -5.36635e-011 -6.70219e-011 5.24975e-011
